<?xml version="1.0" standalone="no"?>
<!DOCTYPE svg PUBLIC "-//W3C//DTD SVG 20010904//EN"
 "http://www.w3.org/TR/2001/REC-SVG-20010904/DTD/svg10.dtd">
<svg version="1.0" xmlns="http://www.w3.org/2000/svg"
 width="500.000000pt" height="500.000000pt" viewBox="0 0 500.000000 500.000000"
 preserveAspectRatio="xMidYMid meet">
<metadata>
Created by potrace 1.14, written by Peter Selinger 2001-2017
</metadata>
<g transform="translate(0.000000,500.000000) scale(0.100000,-0.100000)"
fill="#000000" stroke="none">
<path d="M0 2500 l0 -2500 2500 0 2500 0 0 2500 0 2500 -2500 0 -2500 0 0
-2500z m2650 463 c41 -11 117 -36 168 -57 l92 -37 33 24 c79 59 213 63 286 8
l22 -17 -74 -71 c-130 -124 -292 -218 -463 -269 -76 -22 -111 -27 -234 -29
-80 -2 -125 -1 -100 2 45 4 45 5 20 19 l-25 15 25 -6 25 -5 -23 12 -23 12 23
13 c19 12 20 13 3 9 -69 -17 -200 -28 -281 -24 -84 5 -102 9 -181 47 -71 34
-223 134 -223 146 0 9 116 84 182 117 99 50 171 75 283 99 118 24 351 20 465
-8z m-810 -343 c25 -22 51 -40 58 -40 24 0 11 -18 -18 -24 -17 -3 -65 -22
-107 -41 -89 -41 -107 -36 -73 22 26 45 83 122 90 123 3 0 25 -18 50 -40z
m1164 -67 c-17 -81 -36 -134 -46 -131 -9 3 -48 92 -48 110 0 4 12 11 28 14 15
4 36 13 47 20 26 18 26 18 19 -13z m-373 -99 c52 -8 99 -12 106 -10 6 3 13 0
15 -6 2 -6 14 -1 27 13 22 23 22 22 -3 -27 -60 -120 -163 -228 -273 -286 -40
-21 -44 -22 -59 -6 -15 15 -14 22 15 91 35 84 61 184 61 237 0 24 3 31 9 21 5
-8 47 -19 102 -27z m208 -881 c-11 -38 -22 -78 -25 -90 -4 -13 -10 -23 -15
-23 -11 0 -13 -7 14 80 13 42 22 81 19 88 -2 7 3 12 11 12 14 0 13 -9 -4 -67z
m-559 47 c0 -5 -4 -10 -10 -10 -5 0 -10 5 -10 10 0 6 5 10 10 10 6 0 10 -4 10
-10z m-267 -20 c-3 -13 5 -32 25 -54 31 -35 34 -69 8 -79 -9 -4 -11 2 -8 19 3
16 -4 34 -22 54 -29 35 -32 50 -14 68 16 16 17 15 11 -8z m403 -60 c-11 -44
-26 -80 -32 -80 -9 0 -6 19 7 63 10 34 19 70 19 80 0 9 6 17 13 17 10 0 9 -18
-7 -80z m-266 25 c0 -27 -24 -105 -32 -105 -11 0 -10 8 6 62 8 25 12 49 9 52
-4 3 -1 6 5 6 7 0 12 -7 12 -15z m50 5 c0 -5 -4 -10 -10 -10 -5 0 -10 5 -10
10 0 6 5 10 10 10 6 0 10 -4 10 -10z m62 -3 c0 -21 -27 -107 -34 -107 -11 0
-10 12 7 60 8 23 12 47 9 52 -4 6 -1 9 5 7 7 -3 13 -8 13 -12z m286 -24 c-10
-21 -17 -48 -15 -60 5 -25 -10 -32 -19 -10 -6 17 12 66 33 89 23 26 23 23 1
-19z m56 -13 c-8 -28 -12 -55 -9 -60 6 -10 -8 -14 -17 -5 -3 3 -1 25 4 48 14
62 16 67 27 67 6 0 4 -21 -5 -50z m86 21 c0 -34 -19 -91 -30 -91 -5 0 -2 23 6
50 8 28 12 55 9 60 -3 6 -1 10 4 10 6 0 11 -13 11 -29z m70 15 c0 -7 -6 -32
-14 -54 -8 -22 -12 -43 -9 -46 4 -3 1 -6 -6 -6 -9 0 -11 9 -7 28 3 15 9 42 12
60 6 31 24 45 24 18z m140 4 c0 -5 -5 -10 -11 -10 -5 0 -7 5 -4 10 3 6 8 10
11 10 2 0 4 -4 4 -10z m58 -27 c-10 -21 -17 -48 -15 -60 5 -25 -10 -32 -19
-10 -6 17 12 66 33 89 23 26 23 23 1 -19z m56 -13 c-8 -28 -12 -55 -9 -60 6
-10 -8 -14 -17 -5 -3 3 -1 25 4 48 14 62 16 67 27 67 6 0 4 -21 -5 -50z m-144
-40 c0 -16 -5 -30 -10 -30 -6 0 -9 14 -8 30 1 17 6 30 10 30 4 0 8 -13 8 -30z
m-895 -10 c3 -5 1 -10 -4 -10 -6 0 -11 5 -11 10 0 6 2 10 4 10 3 0 8 -4 11
-10z m500 -9 c-3 -6 -11 -11 -17 -11 -6 0 -6 6 2 15 14 17 26 13 15 -4z"/>
</g>
</svg>
